{"title":"Legend of the Red Reaper 2013 BDRip x264 AC3-MiLLENiUM","uid":9686605,"size":1138212212,"categoryP":"video","categoryS":"movies","magnet":"?xt=urn:btih:2502f46d8f0c677fa6126795a6f21e30f55b19cf&amp;dn=Legend+of+the+Red+Reaper+2013+BDRip+x264+AC3-MiLLENiUM&amp;tr=udp%3A%2F%2Ftracker.openbittorrent.com%3A80&amp;tr=udp%3A%2F%2Fopen.demonii.com%3A1337&amp;tr=udp%3A%2F%2Ftracker.coppersurfer.tk%3A6969&amp;tr=udp%3A%2F%2Fexodus.desync.com%3A6969","seeders":7,"leechers":2,"uploader":"xxxlavalxxx","files":4,"time":1393778351,"description":" &lt;a href=&quot;\nhttp://www.imdb.com/title/tt0996958/&quot; rel=&quot;nofollow&quot; target=&quot;_NEW&quot;&gt;\nhttp://www.imdb.com/title/tt0996958/&lt;/a&gt;\n\n\nFor a thousand years, the Reapers guarded mankind from the demons that wait in the dark. Now, at the beginning of a new age, the Reapers are betrayed and slaughtered. Only one Reaper remains - Red, and she's out to exact revenge.\n\nDirector: Tara Cardinal\nWriters: Tara Cardinal (story), Tara Cardinal\nStars: Tara Cardinal, David Mackey, Ray Eddy\nGenres: Action | Adventure | Fantasy | Romance\nCountry: Canada | USA | Germany\nLanguage: Spanish | English\n\n\n\nSource...............: Bluray [THANKS]\nIMDb Information.... : http://www.imdb.com/title/tt0996958/\nSample Included......: yes\n\nGeneral\nComplete name                            : Legend of the Red Reaper 2013 BDRip x264 AC3-MiLLENiUM.mkv\nFormat                                   : Matroska\nFormat version                           : Version 2\nFile size                                : 1.04 GiB\nDuration                                 : 1h 40mn\nOverall bit rate mode                    : Variable\nOverall bit rate                         : 1 481 Kbps\nEncoded date                             : UTC 2014-03-02 13:16:45\nWriting application                      : mkvmerge v6.5.0 ('Isn't she lovely') built on Oct 20 2013 12:50:05\nWriting library                          : libebml v1.3.0 + libmatroska v1.4.1\n\nVideo\nID                                       : 1\nFormat                                   : AVC\nFormat/Info                              : Advanced Video Codec\nFormat profile                           : &lt;a class=&quot;__cf_email__&quot; href=&quot;/cdn-cgi/l/email-protection&quot; data-cfemail=&quot;1058797778505c243e21&quot;&gt;[email&amp;#160;protected]&lt;/a&gt;&lt;script cf-hash='f9e31' type=&quot;text/javascript&quot;&gt;\n/* &lt;![CDATA[ */!function(){try{var t=&quot;currentScript&quot;in document?document.currentScript:function(){for(var t=document.getElementsByTagName(&quot;script&quot;),e=t.length;e--;)if(t[e].getAttribute(&quot;cf-hash&quot;))return t[e]}();if(t&amp;&amp;t.previousSibling){var e,r,n,i,c=t.previousSibling,a=c.getAttribute(&quot;data-cfemail&quot;);if(a){for(e=&quot;&quot;,r=parseInt(a.substr(0,2),16),n=2;a.length-n;n+=2)i=parseInt(a.substr(n,2),16)^r,e+=String.fromCharCode(i);e=document.createTextNode(e),c.parentNode.replaceChild(e,c)}}}catch(u){}}();/* ]]&gt; */&lt;/script&gt;\nFormat settings, CABAC                   : Yes\nFormat settings, ReFrames                : 3 frames\nCodec ID                                 : V_MPEG4/ISO/AVC\nDuration                                 : 1h 40mn\nBit rate mode                            : Variable\nBit rate                                 : 1 067 Kbps\nMaximum bit rate                         : 40.0 Mbps\nWidth                                    : 720 pixels\nHeight                                   : 400 pixels\nDisplay aspect ratio                     : 16:9\nFrame rate mode                          : Constant\nFrame rate                               : 23.976 fps\nColor space                              : YUV\nChroma subsampling                       : 4:2:0\nBit depth                                : 8 bits\nScan type                                : Progressive\nBits/(Pixel*Frame)                       : 0.155\nStream size                              : 768 MiB (72%)\nWriting library                          : x264 core 138 r2358 9e941d1\n\nAudio\nID                                       : 2\nFormat                                   : AC-3\nFormat/Info                              : Audio Coding 3\nMode extension                           : CM (complete main)\nFormat settings, Endianness              : Big\nCodec ID                                 : A_AC3\nDuration                                 : 1h 40mn\nBit rate mode                            : Constant\nBit rate                                 : 384 Kbps\nChannel(s)                               : 6 channels\nChannel positions                        : Front: L C R, Side: L R, LFE\nSampling rate                            : 48.0 KHz\nBit depth                                : 16 bits\nCompression mode                         : Lossy\nStream size                              : 276 MiB (26%)\nLanguage                                 : English\nDefault                                  : Yes\nForced                                   : No\n\n\nscreens\n &lt;a href=&quot;\nhttp://i.imgur.com/xQRH2nQ.png&quot; rel=&quot;nofollow&quot; target=&quot;_NEW&quot;&gt;\nhttp://i.imgur.com/xQRH2nQ.png&lt;/a&gt; &lt;a href=&quot;\nhttp://i.imgur.com/ouh1mVv.png&quot; rel=&quot;nofollow&quot; target=&quot;_NEW&quot;&gt;\nhttp://i.imgur.com/ouh1mVv.png&lt;/a&gt; &lt;a href=&quot;\nhttp://i.imgur.com/vY45aS5.png&quot; rel=&quot;nofollow&quot; target=&quot;_NEW&quot;&gt;\nhttp://i.imgur.com/vY45aS5.png&lt;/a&gt; &lt;a href=&quot;\nhttp://i.imgur.com/MzHqwka.png&quot; rel=&quot;nofollow&quot; target=&quot;_NEW&quot;&gt;\nhttp://i.imgur.com/MzHqwka.png&lt;/a&gt; &lt;a href=&quot;\nhttp://i.imgur.com/BCqnKk4.png&quot; rel=&quot;nofollow&quot; target=&quot;_NEW&quot;&gt;\nhttp://i.imgur.com/BCqnKk4.png&lt;/a&gt;","torrent":{"xt":"urn:btih:2502f46d8f0c677fa6126795a6f21e30f55b19cf","amp;dn":"Legend+of+the+Red+Reaper+2013+BDRip+x264+AC3-MiLLENiUM","amp;tr":["udp%3A%2F%2Ftracker.openbittorrent.com%3A80","udp%3A%2F%2Fopen.demonii.com%3A1337","udp%3A%2F%2Ftracker.coppersurfer.tk%3A6969","udp%3A%2F%2Fexodus.desync.com%3A6969"],"infoHash":"2502f46d8f0c677fa6126795a6f21e30f55b19cf","infoHashBuffer":{"type":"Buffer","data":[37,2,244,109,143,12,103,127,166,18,103,149,166,242,30,48,245,91,25,207]},"announce":[],"urlList":[]}}